<mxfile host="app.diagrams.net" modified="2023-05-05T00:28:15.385Z" agent="Mozilla/5.0 (Windows NT 10.0; Win64; x64) AppleWebKit/537.36 (KHTML, like Gecko) Chrome/112.0.0.0 Safari/537.36" version="21.2.9" etag="G8yJUbFNph9Lx5xF-063" type="github">
  <diagram name="PÃ¡gina-1" id="DgYOnduP6bPjpNXKDvch">
    <mxGraphModel>
      <root>
        <mxCell id="0" />
        <mxCell id="1" parent="0" />
      </root>
    </mxGraphModel>
  </diagram>
</mxfile>
